<?xml version="1.0" encoding="utf-8"?>
<!-- Generator: Adobe Illustrator 16.0.4, SVG Export Plug-In . SVG Version: 6.00 Build 0)  -->
<!DOCTYPE svg PUBLIC "-//W3C//DTD SVG 1.1//EN" "http://www.w3.org/Graphics/SVG/1.1/DTD/svg11.dtd">
<svg version="1.1" id="Layer_1" xmlns="http://www.w3.org/2000/svg" xmlns:xlink="http://www.w3.org/1999/xlink" x="0px" y="0px"
	 width="50px" height="50px" viewBox="0 0 50 50" enable-background="new 0 0 50 50" xml:space="preserve">
<path d="M24.153,18.688c-0.19,0.227-0.38,0.161-0.461-0.112c-0.018-0.114-0.559-2.367-0.559-2.367l-0.979,3.558
	c0,0-0.315,0.919-0.769,1.064c-0.961,0.308-6.03,0.31-7.689-0.736c-0.593-0.307,0.329-3.101,0.615-3.564
	c-0.771,0.397-4.152,7.356-4.152,8.476c0,1.428,2.806,7.613,4.46,8.784c-0.706-1.237-1.404-3.575-0.615-4.006
	c1.048-0.573,3.21-1.123,4.943,1.694c0.525-0.854,3.082-4.422,6.117,2.312c2.021-5.438,4.45-4.507,5.878-2.003
	c0.58-1.002,2.543-3.177,5.054-2.003c0.772,0.492,0.332,2.131-0.615,3.854c2.117-1.594,4.459-7.307,4.459-8.477
	c0-0.713-2.365-7.263-4.305-8.938c0.485,1.153,1.385,3.635,0.614,3.873c-0.771,0.237-5.878,1.335-7.843,0.736
	c-0.555-0.18-0.566-0.837-0.615-1.064s-0.854-3.544-0.854-3.544s-0.465,2.091-0.531,2.312c-0.066,0.221-0.271,0.54-0.615,0.154
	C25.506,18.363,24.58,18.179,24.153,18.688z"/>
</svg>
