<?xml version="1.0" encoding="iso-8859-1"?>
<!-- Generator: Adobe Illustrator 16.0.0, SVG Export Plug-In . SVG Version: 6.00 Build 0)  -->
<!DOCTYPE svg PUBLIC "-//W3C//DTD SVG 1.1//EN" "http://www.w3.org/Graphics/SVG/1.1/DTD/svg11.dtd">
<svg version="1.1" id="Layer_2" xmlns="http://www.w3.org/2000/svg" xmlns:xlink="http://www.w3.org/1999/xlink" x="0px" y="0px"
	 width="512px" height="512px" viewBox="0 0 512 512" style="enable-background:new 0 0 512 512;" xml:space="preserve">
<g>
	<path d="M127.38,219.5L235.519,72.546c0.267,0.062,0.524,0.126,0.793,0.189c4.735,1.164,9.763,2.661,15.014,4.411
		c10.494,3.534,21.849,8.381,33.278,14.93c11.419,6.557,22.923,14.787,33.671,24.809c10.759,9.995,20.785,21.733,29.355,34.926
		c8.583,13.179,15.716,27.791,20.877,43.288c3.734,11.16,6.416,22.773,8.025,34.582h49.634
		c-2.078-17.579-6.441-34.872-12.854-51.073c-7.685-19.466-18.313-37.333-30.881-52.622c-12.559-15.308-27.016-28.033-42.018-37.854
		c-14.995-9.862-30.536-16.774-45.262-21.203c-14.748-4.435-28.679-6.358-40.886-6.755c-6.108-0.218-11.804,0.016-17.011,0.386
		c-1.304,0.112-2.576,0.214-3.819,0.347c-1.243,0.131-2.457,0.304-3.638,0.449c-1.182,0.141-2.332,0.309-3.451,0.49L203.333,48
		l5.88,12.671L92.337,219.5H127.38z"/>
	<polygon points="445.209,218.442 445.209,246.155 101.359,246.155 92.036,233.545 17.467,233.556 42.964,256.375 494.5,256 	"/>
</g>
<g>
	<path d="M127.38,292.429l108.138,146.954c0.267-0.062,0.524-0.126,0.793-0.189c4.735-1.164,9.763-2.661,15.014-4.411
		c10.494-3.534,21.849-8.381,33.278-14.93c11.419-6.557,22.923-14.787,33.671-24.809c10.759-9.995,20.785-21.733,29.355-34.926
		c8.583-13.179,15.716-27.791,20.877-43.288c3.734-11.16,6.416-22.773,8.025-34.582h49.634
		c-2.078,17.579-6.441,34.872-12.854,51.073c-7.685,19.466-18.313,37.333-30.881,52.622c-12.559,15.308-27.016,28.033-42.018,37.854
		c-14.995,9.862-30.536,16.774-45.262,21.203c-14.748,4.435-28.679,6.358-40.886,6.755c-6.108,0.218-11.804-0.016-17.011-0.386
		c-1.304-0.112-2.576-0.214-3.819-0.347c-1.243-0.131-2.457-0.304-3.638-0.449c-1.182-0.141-2.332-0.309-3.451-0.49l-23.015,13.847
		l5.88-12.671L92.337,292.429H127.38z"/>
	<polygon points="445.209,293.486 445.209,265.773 101.359,265.773 92.036,278.384 17.467,278.373 42.964,255.554 494.5,255.929 	
		"/>
</g>
</svg>
